<svg width="1280" height="560" viewBox="0 0 1280 560" fill="none" xmlns="http://www.w3.org/2000/svg" role="img" aria-labelledby="title desc">
  <title id="title">Personal OS + Personal Wiki product preview</title>
  <desc id="desc">A clean product preview showing a local-first agent workbench with Inbox, Tasks, Wiki memory, and review flow.</desc>
  <defs>
    <linearGradient id="page" x1="0" y1="0" x2="1280" y2="560" gradientUnits="userSpaceOnUse">
      <stop stop-color="#FFFDF8"/>
      <stop offset="0.52" stop-color="#F6FBF8"/>
      <stop offset="1" stop-color="#EEF4FF"/>
    </linearGradient>
    <linearGradient id="headline" x1="88" y1="130" x2="540" y2="292" gradientUnits="userSpaceOnUse">
      <stop stop-color="#0B2440"/>
      <stop offset="1" stop-color="#14534A"/>
    </linearGradient>
    <linearGradient id="panel" x1="708" y1="88" x2="1182" y2="552" gradientUnits="userSpaceOnUse">
      <stop stop-color="#FFFFFF"/>
      <stop offset="1" stop-color="#F8FAFC"/>
    </linearGradient>
    <filter id="panelShadow" x="646" y="42" width="604" height="574" filterUnits="userSpaceOnUse" color-interpolation-filters="sRGB">
      <feDropShadow dx="0" dy="28" stdDeviation="32" flood-color="#0F172A" flood-opacity="0.16"/>
    </filter>
    <filter id="cardShadow" x="-16" y="-16" width="310" height="140" filterUnits="userSpaceOnUse" color-interpolation-filters="sRGB">
      <feDropShadow dx="0" dy="10" stdDeviation="12" flood-color="#0F172A" flood-opacity="0.10"/>
    </filter>
  </defs>

  <rect width="1280" height="560" rx="34" fill="url(#page)"/>
  <circle cx="112" cy="104" r="160" fill="#99F6E4" fill-opacity="0.28"/>
  <circle cx="1138" cy="540" r="178" fill="#BFDBFE" fill-opacity="0.44"/>
  <circle cx="930" cy="112" r="112" fill="#FED7AA" fill-opacity="0.32"/>

  <g font-family="Inter, Segoe UI, Arial, sans-serif">
    <text x="88" y="118" fill="#0F766E" font-size="17" font-weight="850" letter-spacing="1.8">LOCAL-FIRST AGENT WORKBENCH</text>
    <text x="88" y="182" fill="url(#headline)" font-size="54" font-weight="850" letter-spacing="-1.2">Personal OS</text>
    <text x="88" y="242" fill="url(#headline)" font-size="54" font-weight="850" letter-spacing="-1.2">+ Personal Wiki</text>
    <text x="92" y="298" fill="#475569" font-size="22">Turn messy input into memory, tasks,</text>
    <text x="92" y="328" fill="#475569" font-size="22">evidence, and reviewable agent work.</text>

    <g transform="translate(92 382)">
      <rect width="104" height="40" rx="20" fill="#0F766E"/>
      <text x="52" y="26" fill="#FFFFFF" font-size="15" font-weight="850" text-anchor="middle">Inbox</text>
      <rect x="118" width="104" height="40" rx="20" fill="#1D4ED8"/>
      <text x="170" y="26" fill="#FFFFFF" font-size="15" font-weight="850" text-anchor="middle">Tasks</text>
      <rect x="236" width="96" height="40" rx="20" fill="#7C3AED"/>
      <text x="284" y="26" fill="#FFFFFF" font-size="15" font-weight="850" text-anchor="middle">Wiki</text>
      <rect x="346" width="104" height="40" rx="20" fill="#EA580C"/>
      <text x="398" y="26" fill="#FFFFFF" font-size="15" font-weight="850" text-anchor="middle">Review</text>
    </g>

    <path d="M94 488C166 458 220 512 294 482C368 452 426 506 504 470" stroke="#0F766E" stroke-width="4" stroke-linecap="round" stroke-opacity="0.24"/>
  </g>

  <g filter="url(#panelShadow)">
    <rect x="700" y="86" width="480" height="468" rx="30" fill="url(#panel)" stroke="#D7DEE8"/>
    <rect x="700" y="86" width="480" height="58" rx="30" fill="#0F172A"/>
    <circle cx="738" cy="115" r="7" fill="#FB7185"/>
    <circle cx="763" cy="115" r="7" fill="#FBBF24"/>
    <circle cx="788" cy="115" r="7" fill="#34D399"/>
    <text x="820" y="122" fill="#CBD5E1" font-family="Inter, Segoe UI, Arial, sans-serif" font-size="14" font-weight="750">localhost:3000 / Today</text>

    <g font-family="Inter, Segoe UI, Arial, sans-serif">
      <rect x="728" y="170" width="126" height="338" rx="22" fill="#F1F5F9"/>
      <text x="746" y="207" fill="#0F172A" font-size="17" font-weight="850">Personal OS</text>
      <text x="746" y="248" fill="#0F766E" font-size="14" font-weight="850">Today</text>
      <text x="746" y="281" fill="#475569" font-size="14">Inbox</text>
      <text x="746" y="314" fill="#475569" font-size="14">Projects</text>
      <text x="746" y="347" fill="#475569" font-size="14">Tasks</text>
      <text x="746" y="380" fill="#475569" font-size="14">Reviews</text>
      <text x="746" y="413" fill="#475569" font-size="14">Wiki</text>

      <text x="884" y="203" fill="#0F172A" font-size="23" font-weight="850">Today workspace</text>
      <text x="884" y="230" fill="#64748B" font-size="14">What should move next?</text>

      <g transform="translate(884 256)" filter="url(#cardShadow)">
        <rect width="248" height="86" rx="20" fill="#FFFFFF" stroke="#E2E8F0"/>
        <rect x="18" y="18" width="48" height="24" rx="12" fill="#DCFCE7"/>
        <text x="42" y="35" fill="#166534" font-size="12" font-weight="850" text-anchor="middle">P1</text>
        <text x="82" y="36" fill="#0F172A" font-size="16" font-weight="850">Review checklist</text>
        <text x="82" y="62" fill="#64748B" font-size="13">artifact + evidence required</text>
      </g>

      <g transform="translate(884 366)" filter="url(#cardShadow)">
        <rect width="118" height="112" rx="20" fill="#FFFFFF" stroke="#E2E8F0"/>
        <text x="18" y="34" fill="#7C3AED" font-size="14" font-weight="850">Wiki</text>
        <text x="18" y="61" fill="#475569" font-size="12">demo note</text>
        <text x="18" y="79" fill="#475569" font-size="12">linked</text>
        <path d="M20 92H92" stroke="#DDD6FE" stroke-width="4" stroke-linecap="round"/>
      </g>

      <g transform="translate(1018 366)" filter="url(#cardShadow)">
        <rect width="118" height="112" rx="20" fill="#FFFFFF" stroke="#E2E8F0"/>
        <text x="18" y="34" fill="#EA580C" font-size="14" font-weight="850">Agent</text>
        <text x="18" y="61" fill="#475569" font-size="12">claim lease</text>
        <text x="18" y="79" fill="#475569" font-size="12">heartbeat</text>
        <path d="M20 92H92" stroke="#FED7AA" stroke-width="4" stroke-linecap="round"/>
      </g>
    </g>
  </g>
</svg>
