<svg width="1280" height="640" viewBox="0 0 1280 640" fill="none" xmlns="http://www.w3.org/2000/svg" role="img" aria-labelledby="title desc">
  <title id="title">Personal OS + Personal Wiki product preview</title>
  <desc id="desc">A product-style preview showing Inbox, Today, Tasks, Wiki memory, and an Agent Queue working together.</desc>
  <defs>
    <linearGradient id="page" x1="0" y1="0" x2="1280" y2="640" gradientUnits="userSpaceOnUse">
      <stop stop-color="#FFFDF8"/>
      <stop offset="0.45" stop-color="#F4F8F6"/>
      <stop offset="1" stop-color="#EEF4FF"/>
    </linearGradient>
    <linearGradient id="ink" x1="118" y1="132" x2="550" y2="506" gradientUnits="userSpaceOnUse">
      <stop stop-color="#102A43"/>
      <stop offset="1" stop-color="#173B35"/>
    </linearGradient>
    <linearGradient id="screen" x1="604" y1="98" x2="1158" y2="538" gradientUnits="userSpaceOnUse">
      <stop stop-color="#FFFFFF"/>
      <stop offset="1" stop-color="#F8FAFC"/>
    </linearGradient>
    <filter id="softShadow" x="520" y="54" width="706" height="548" filterUnits="userSpaceOnUse" color-interpolation-filters="sRGB">
      <feDropShadow dx="0" dy="28" stdDeviation="32" flood-color="#0F172A" flood-opacity="0.16"/>
    </filter>
    <filter id="cardShadow" x="-20" y="-20" width="260" height="160" filterUnits="userSpaceOnUse" color-interpolation-filters="sRGB">
      <feDropShadow dx="0" dy="12" stdDeviation="14" flood-color="#0F172A" flood-opacity="0.08"/>
    </filter>
  </defs>

  <rect width="1280" height="640" rx="34" fill="url(#page)"/>
  <circle cx="118" cy="96" r="160" fill="#99F6E4" fill-opacity="0.25"/>
  <circle cx="1116" cy="536" r="190" fill="#BFDBFE" fill-opacity="0.42"/>
  <circle cx="936" cy="118" r="120" fill="#FED7AA" fill-opacity="0.34"/>

  <g font-family="Inter, Segoe UI, Arial, sans-serif">
    <text x="92" y="126" fill="#0F766E" font-size="18" font-weight="800" letter-spacing="1.6">LOCAL-FIRST AGENT WORKBENCH</text>
    <text x="92" y="190" fill="url(#ink)" font-size="58" font-weight="850" letter-spacing="-1.6">Personal OS</text>
    <text x="92" y="252" fill="url(#ink)" font-size="58" font-weight="850" letter-spacing="-1.6">+ Personal Wiki</text>
    <text x="96" y="306" fill="#475569" font-size="23">Turn messy input into memory, claimable tasks,</text>
    <text x="96" y="337" fill="#475569" font-size="23">submitted evidence, and reviewable agent work.</text>

    <g transform="translate(94 382)">
      <rect width="138" height="42" rx="21" fill="#0F766E"/>
      <text x="69" y="28" fill="#FFFFFF" font-size="16" font-weight="800" text-anchor="middle">Inbox</text>
      <rect x="154" width="132" height="42" rx="21" fill="#1D4ED8"/>
      <text x="220" y="28" fill="#FFFFFF" font-size="16" font-weight="800" text-anchor="middle">Tasks</text>
      <rect x="302" width="126" height="42" rx="21" fill="#7C3AED"/>
      <text x="365" y="28" fill="#FFFFFF" font-size="16" font-weight="800" text-anchor="middle">Wiki</text>
      <rect x="444" width="146" height="42" rx="21" fill="#EA580C"/>
      <text x="517" y="28" fill="#FFFFFF" font-size="16" font-weight="800" text-anchor="middle">Review</text>
    </g>

    <path d="M98 486C176 454 224 516 306 482C388 448 438 510 522 470" stroke="#0F766E" stroke-width="4" stroke-linecap="round" stroke-opacity="0.25"/>
  </g>

  <g filter="url(#softShadow)">
    <rect x="586" y="88" width="590" height="464" rx="30" fill="url(#screen)" stroke="#D7DEE8"/>
    <rect x="586" y="88" width="590" height="58" rx="30" fill="#0F172A"/>
    <circle cx="626" cy="117" r="7" fill="#FB7185"/>
    <circle cx="651" cy="117" r="7" fill="#FBBF24"/>
    <circle cx="676" cy="117" r="7" fill="#34D399"/>
    <text x="718" y="124" fill="#CBD5E1" font-family="Inter, Segoe UI, Arial, sans-serif" font-size="15" font-weight="700">localhost:3000 / Today</text>

    <g font-family="Inter, Segoe UI, Arial, sans-serif">
      <rect x="618" y="174" width="148" height="338" rx="22" fill="#F1F5F9"/>
      <text x="642" y="212" fill="#0F172A" font-size="18" font-weight="850">Personal OS</text>
      <text x="642" y="254" fill="#0F766E" font-size="15" font-weight="800">Today</text>
      <text x="642" y="288" fill="#475569" font-size="15">Inbox</text>
      <text x="642" y="322" fill="#475569" font-size="15">Projects</text>
      <text x="642" y="356" fill="#475569" font-size="15">Tasks</text>
      <text x="642" y="390" fill="#475569" font-size="15">Reviews</text>
      <text x="642" y="424" fill="#475569" font-size="15">Wiki</text>

      <text x="798" y="205" fill="#0F172A" font-size="24" font-weight="850">Today workspace</text>
      <text x="798" y="232" fill="#64748B" font-size="15">What should move next?</text>

      <g transform="translate(798 258)" filter="url(#cardShadow)">
        <rect width="326" height="86" rx="20" fill="#FFFFFF" stroke="#E2E8F0"/>
        <rect x="18" y="18" width="54" height="24" rx="12" fill="#DCFCE7"/>
        <text x="45" y="35" fill="#166534" font-size="12" font-weight="800" text-anchor="middle">P1</text>
        <text x="88" y="36" fill="#0F172A" font-size="17" font-weight="800">Review launch checklist</text>
        <text x="88" y="62" fill="#64748B" font-size="14">definition of done + artifact required</text>
      </g>

      <g transform="translate(798 364)" filter="url(#cardShadow)">
        <rect width="154" height="118" rx="20" fill="#FFFFFF" stroke="#E2E8F0"/>
        <text x="22" y="34" fill="#7C3AED" font-size="15" font-weight="850">Wiki memory</text>
        <text x="22" y="64" fill="#475569" font-size="13">Demo launch</text>
        <text x="22" y="84" fill="#475569" font-size="13">checklist.md</text>
        <path d="M28 96H126" stroke="#DDD6FE" stroke-width="4" stroke-linecap="round"/>
      </g>

      <g transform="translate(970 364)" filter="url(#cardShadow)">
        <rect width="154" height="118" rx="20" fill="#FFFFFF" stroke="#E2E8F0"/>
        <text x="22" y="34" fill="#EA580C" font-size="15" font-weight="850">Agent queue</text>
        <text x="22" y="64" fill="#475569" font-size="13">claim lease</text>
        <text x="22" y="84" fill="#475569" font-size="13">heartbeat</text>
        <path d="M28 96H126" stroke="#FED7AA" stroke-width="4" stroke-linecap="round"/>
      </g>
    </g>
  </g>
</svg>
