<svg width="1200" height="520" viewBox="0 0 1200 520" fill="none" xmlns="http://www.w3.org/2000/svg">
  <defs>
    <linearGradient id="bg" x1="0" y1="0" x2="1200" y2="520" gradientUnits="userSpaceOnUse">
      <stop stop-color="#ecfeff"/>
      <stop offset="0.55" stop-color="#f8fafc"/>
      <stop offset="1" stop-color="#fff7ed"/>
    </linearGradient>
    <filter id="shadow" x="-20%" y="-20%" width="140%" height="150%">
      <feDropShadow dx="0" dy="22" stdDeviation="22" flood-color="#0f172a" flood-opacity="0.16"/>
    </filter>
  </defs>
  <rect width="1200" height="520" rx="34" fill="url(#bg)"/>
  <circle cx="160" cy="82" r="130" fill="#99f6e4" opacity="0.35"/>
  <circle cx="1010" cy="438" r="170" fill="#bfdbfe" opacity="0.45"/>
  <text x="64" y="72" fill="#0f172a" font-family="Inter, ui-sans-serif, system-ui" font-size="34" font-weight="850">60-second demo: from messy input to reviewable agent work</text>
  <text x="64" y="112" fill="#475569" font-family="Inter, ui-sans-serif, system-ui" font-size="18">Fake seed data shows the actual loop: capture, task, claim, evidence, review, reminder.</text>

  <g filter="url(#shadow)">
    <rect x="64" y="158" width="205" height="230" rx="24" fill="white"/>
    <rect x="86" y="184" width="70" height="24" rx="12" fill="#ccfbf1"/>
    <text x="98" y="201" fill="#0f766e" font-family="Inter, ui-sans-serif, system-ui" font-size="12" font-weight="800">INBOX</text>
    <text x="86" y="238" fill="#0f172a" font-family="Inter, ui-sans-serif, system-ui" font-size="22" font-weight="820">Messy idea</text>
    <text x="86" y="272" fill="#475569" font-family="Inter, ui-sans-serif, system-ui" font-size="15">"This GitHub repo</text>
    <text x="86" y="296" fill="#475569" font-family="Inter, ui-sans-serif, system-ui" font-size="15">might help my AI</text>
    <text x="86" y="320" fill="#475569" font-family="Inter, ui-sans-serif, system-ui" font-size="15">video project..."</text>
    <rect x="86" y="344" width="136" height="8" rx="4" fill="#99f6e4"/>
  </g>

  <path d="M286 272H346" stroke="#94a3b8" stroke-width="4" stroke-linecap="round"/>
  <path d="M336 258L350 272L336 286" stroke="#94a3b8" stroke-width="4" stroke-linecap="round" stroke-linejoin="round"/>

  <g filter="url(#shadow)">
    <rect x="364" y="158" width="205" height="230" rx="24" fill="white"/>
    <rect x="386" y="184" width="62" height="24" rx="12" fill="#ede9fe"/>
    <text x="400" y="201" fill="#7c3aed" font-family="Inter, ui-sans-serif, system-ui" font-size="12" font-weight="800">WIKI</text>
    <text x="386" y="238" fill="#0f172a" font-family="Inter, ui-sans-serif, system-ui" font-size="22" font-weight="820">Knowledge</text>
    <text x="386" y="272" fill="#475569" font-family="Inter, ui-sans-serif, system-ui" font-size="15">Markdown note</text>
    <text x="386" y="296" fill="#475569" font-family="Inter, ui-sans-serif, system-ui" font-size="15">tags, concepts,</text>
    <text x="386" y="320" fill="#475569" font-family="Inter, ui-sans-serif, system-ui" font-size="15">links, graph data</text>
    <circle cx="408" cy="354" r="7" fill="#8b5cf6"/>
    <circle cx="446" cy="334" r="7" fill="#22c55e"/>
    <circle cx="484" cy="356" r="7" fill="#f97316"/>
    <path d="M415 350L439 338M453 338L477 352" stroke="#c4b5fd" stroke-width="3"/>
  </g>

  <path d="M586 272H646" stroke="#94a3b8" stroke-width="4" stroke-linecap="round"/>
  <path d="M636 258L650 272L636 286" stroke="#94a3b8" stroke-width="4" stroke-linecap="round" stroke-linejoin="round"/>

  <g filter="url(#shadow)">
    <rect x="664" y="158" width="205" height="230" rx="24" fill="white"/>
    <rect x="686" y="184" width="64" height="24" rx="12" fill="#dbeafe"/>
    <text x="702" y="201" fill="#2563eb" font-family="Inter, ui-sans-serif, system-ui" font-size="12" font-weight="800">TASK</text>
    <text x="686" y="238" fill="#0f172a" font-family="Inter, ui-sans-serif, system-ui" font-size="22" font-weight="820">Claimed work</text>
    <text x="686" y="272" fill="#475569" font-family="Inter, ui-sans-serif, system-ui" font-size="15">Agent claims task</text>
    <text x="686" y="296" fill="#475569" font-family="Inter, ui-sans-serif, system-ui" font-size="15">heartbeats while</text>
    <text x="686" y="320" fill="#475569" font-family="Inter, ui-sans-serif, system-ui" font-size="15">working</text>
    <rect x="686" y="344" width="128" height="10" rx="5" fill="#bfdbfe"/>
    <rect x="686" y="344" width="82" height="10" rx="5" fill="#2563eb"/>
  </g>

  <path d="M886 272H946" stroke="#94a3b8" stroke-width="4" stroke-linecap="round"/>
  <path d="M936 258L950 272L936 286" stroke="#94a3b8" stroke-width="4" stroke-linecap="round" stroke-linejoin="round"/>

  <g filter="url(#shadow)">
    <rect x="964" y="158" width="172" height="230" rx="24" fill="white"/>
    <rect x="986" y="184" width="76" height="24" rx="12" fill="#ffedd5"/>
    <text x="1000" y="201" fill="#ea580c" font-family="Inter, ui-sans-serif, system-ui" font-size="12" font-weight="800">REVIEW</text>
    <text x="986" y="238" fill="#0f172a" font-family="Inter, ui-sans-serif, system-ui" font-size="22" font-weight="820">Evidence</text>
    <text x="986" y="272" fill="#475569" font-family="Inter, ui-sans-serif, system-ui" font-size="15">artifact link</text>
    <text x="986" y="296" fill="#475569" font-family="Inter, ui-sans-serif, system-ui" font-size="15">review gate</text>
    <text x="986" y="320" fill="#475569" font-family="Inter, ui-sans-serif, system-ui" font-size="15">Mac reminder</text>
    <path d="M990 352L1014 374L1068 330" stroke="#22c55e" stroke-width="8" stroke-linecap="round" stroke-linejoin="round"/>
  </g>

  <rect x="64" y="430" width="1072" height="46" rx="23" fill="#0f172a"/>
  <text x="92" y="459" fill="white" font-family="Inter, ui-sans-serif, system-ui" font-size="18" font-weight="780">Make AI agents work from explicit tasks, evidence, and reviews instead of stale chat history.</text>
</svg>
